<svg xmlns="http://www.w3.org/2000/svg" xmlns:xlink="http://www.w3.org/1999/xlink" width="500" zoomAndPan="magnify" viewBox="0 0 375 374.999991" height="500" preserveAspectRatio="xMidYMid meet" version="1.0"><defs><filter x="0%" y="0%" width="100%" height="100%" id="c9321fa6e0"><feColorMatrix values="0 0 0 0 1 0 0 0 0 1 0 0 0 0 1 0 0 0 1 0" color-interpolation-filters="sRGB"/></filter><g/><clipPath id="c9e189ffb6"><path d="M 75.886719 155.007812 L 126.441406 155.007812 L 126.441406 236.113281 L 75.886719 236.113281 Z M 75.886719 155.007812 " clip-rule="nonzero"/></clipPath><clipPath id="7d9eca2f72"><path d="M 212.503906 155.007812 L 278.925781 155.007812 L 278.925781 236.113281 L 212.503906 236.113281 Z M 212.503906 155.007812 " clip-rule="nonzero"/></clipPath><mask id="54e219cd65"><g filter="url(#c9321fa6e0)"><rect x="-37.5" width="450" fill="#000000" y="-37.499999" height="449.999989" fill-opacity="0.4"/></g></mask><clipPath id="24c181a144"><rect x="0" width="78" y="0" height="143"/></clipPath><mask id="8cb084d199"><g filter="url(#c9321fa6e0)"><rect x="-37.5" width="450" fill="#000000" y="-37.499999" height="449.999989" fill-opacity="0.4"/></g></mask><clipPath id="7c3b47dfb6"><rect x="0" width="118" y="0" height="143"/></clipPath><mask id="cf30279397"><g filter="url(#c9321fa6e0)"><rect x="-37.5" width="450" fill="#000000" y="-37.499999" height="449.999989" fill-opacity="0.25"/></g></mask><clipPath id="7dfe303d1b"><rect x="0" width="72" y="0" height="289"/></clipPath></defs><g fill="#ffffff" fill-opacity="1"><g transform="translate(96.073117, 229.956703)"><g><path d="M 50.796875 -70.171875 L 70.3125 -70.171875 L 70.3125 0 L 53.625 0 L 50.796875 -5.375 C 48.523438 -3.769531 45.953125 -2.472656 43.078125 -1.484375 C 40.203125 -0.492188 37.113281 0 33.8125 0 C 31.269531 0 28.367188 -0.375 25.109375 -1.125 C 21.859375 -1.882812 18.816406 -3.300781 15.984375 -5.375 C 13.160156 -7.445312 10.78125 -10.320312 8.84375 -14 C 6.90625 -17.6875 5.9375 -22.453125 5.9375 -28.296875 L 5.9375 -70.171875 L 25.609375 -70.171875 L 25.609375 -29 C 25.609375 -26.832031 25.960938 -24.992188 26.671875 -23.484375 C 27.378906 -21.972656 28.320312 -20.769531 29.5 -19.875 C 30.675781 -18.976562 32.019531 -18.316406 33.53125 -17.890625 C 35.039062 -17.472656 36.597656 -17.265625 38.203125 -17.265625 C 39.429688 -17.265625 40.773438 -17.472656 42.234375 -17.890625 C 43.691406 -18.316406 45.054688 -19 46.328125 -19.9375 C 47.609375 -20.882812 48.671875 -22.113281 49.515625 -23.625 C 50.367188 -25.132812 50.796875 -26.925781 50.796875 -29 Z M 50.796875 -70.171875 "/></g></g></g><g fill="#ffffff" fill-opacity="1"><g transform="translate(166.303969, 229.956703)"><g><path d="M 84.46875 -70.171875 C 87.007812 -70.171875 89.742188 -69.742188 92.671875 -68.890625 C 95.597656 -68.046875 98.3125 -66.539062 100.8125 -64.375 C 103.3125 -62.207031 105.363281 -59.234375 106.96875 -55.453125 C 108.570312 -51.679688 109.375 -46.875 109.375 -41.03125 L 109.375 0 L 89.84375 0 L 89.84375 -37.5 C 89.84375 -40.320312 89.535156 -42.722656 88.921875 -44.703125 C 88.304688 -46.691406 87.476562 -48.296875 86.4375 -49.515625 C 85.40625 -50.742188 84.203125 -51.617188 82.828125 -52.140625 C 81.460938 -52.660156 80.078125 -52.921875 78.671875 -52.921875 C 77.347656 -52.921875 76.023438 -52.679688 74.703125 -52.203125 C 73.378906 -51.734375 72.195312 -50.929688 71.15625 -49.796875 C 70.125 -48.671875 69.300781 -47.113281 68.6875 -45.125 C 68.070312 -43.144531 67.765625 -40.648438 67.765625 -37.640625 L 67.765625 0 L 48.25 0 L 48.25 -37.5 C 48.25 -43.25 47.253906 -47.253906 45.265625 -49.515625 C 43.285156 -51.785156 40.410156 -52.921875 36.640625 -52.921875 C 33.910156 -52.921875 31.457031 -51.644531 29.28125 -49.09375 C 27.113281 -46.550781 26.03125 -42.585938 26.03125 -37.203125 L 26.03125 0 L 6.515625 0 L 6.515625 -70.171875 L 23.203125 -70.171875 L 26.03125 -63.671875 C 28.195312 -65.742188 30.71875 -67.34375 33.59375 -68.46875 C 36.476562 -69.601562 39.570312 -70.171875 42.875 -70.171875 C 44.570312 -70.171875 46.363281 -70.003906 48.25 -69.671875 C 50.132812 -69.347656 51.972656 -68.757812 53.765625 -67.90625 C 55.554688 -67.0625 57.273438 -65.953125 58.921875 -64.578125 C 60.578125 -63.210938 62.066406 -61.492188 63.390625 -59.421875 C 64.515625 -61.210938 65.878906 -62.789062 67.484375 -64.15625 C 69.085938 -65.53125 70.832031 -66.664062 72.71875 -67.5625 C 74.601562 -68.457031 76.5625 -69.113281 78.59375 -69.53125 C 80.625 -69.957031 82.582031 -70.171875 84.46875 -70.171875 Z M 84.46875 -70.171875 "/></g></g></g><g clip-path="url(#c9e189ffb6)"><path fill="#000000" d="M 75.886719 155.007812 L 126.441406 155.007812 L 126.441406 236.175781 L 75.886719 236.175781 Z M 75.886719 155.007812 " fill-opacity="1" fill-rule="nonzero"/></g><g clip-path="url(#7d9eca2f72)"><path fill="#000000" d="M 212.503906 155.007812 L 278.925781 155.007812 L 278.925781 236.222656 L 212.503906 236.222656 Z M 212.503906 155.007812 " fill-opacity="1" fill-rule="nonzero"/></g><g mask="url(#54e219cd65)"><g transform="matrix(1, 0, 0, 1, 96, 116)"><g clip-path="url(#24c181a144)"><path stroke-linecap="butt" transform="matrix(1.768611, 0, 0, 1.768611, 0.0731159, -9.846047)" fill="none" stroke-linejoin="miter" d="M 28.710922 30.312871 L 39.765237 30.312871 L 39.765237 70.000182 L 30.312196 70.000182 L 28.710922 66.952239 C 27.43432 67.864413 25.983234 68.599895 24.355455 69.160893 C 22.727677 69.719683 20.98284 70.000182 19.120944 70.000182 C 17.676485 70.000182 16.035454 69.785942 14.200063 69.355255 C 12.362462 68.926776 10.644129 68.125034 9.042855 66.952239 C 7.44158 65.781652 6.094301 64.1605 5.001017 62.088782 C 3.905525 60.006021 3.359987 57.311462 3.359987 54.002898 L 3.359987 30.312871 L 14.471727 30.312871 L 14.471727 53.594297 C 14.471727 54.831143 14.674923 55.878046 15.079107 56.737212 C 15.481082 57.585335 16.015576 58.261184 16.680381 58.769174 C 17.342978 59.263913 18.098338 59.634967 18.944252 59.882336 C 19.805627 60.116453 20.689089 60.233512 21.601263 60.233512 C 22.292572 60.233512 23.047932 60.116453 23.867343 59.882336 C 24.700005 59.634967 25.475243 59.250661 26.190847 58.729418 C 26.919703 58.197133 27.520457 57.499198 27.988692 56.640031 C 28.470178 55.780865 28.710922 54.764884 28.710922 53.594297 Z M 28.710922 30.312871 " stroke="#525252" stroke-width="0.55" stroke-opacity="1" stroke-miterlimit="4"/></g></g></g><g mask="url(#8cb084d199)"><g transform="matrix(1, 0, 0, 1, 166, 116)"><g clip-path="url(#7c3b47dfb6)"><path stroke-linecap="butt" transform="matrix(1.768611, 0, 0, 1.768611, 0.303968, -9.846047)" fill="none" stroke-linejoin="miter" d="M 47.753723 30.312871 C 49.198183 30.312871 50.748658 30.553615 52.40294 31.035101 C 54.055014 31.516588 55.585611 32.375754 56.992524 33.612601 C 58.41048 34.836195 59.570024 36.516981 60.468946 38.65275 C 61.38112 40.775267 61.836103 43.489703 61.836103 46.796059 L 61.836103 70.000182 L 50.801666 70.000182 L 50.801666 48.808143 C 50.801666 47.206869 50.624974 45.846337 50.273797 44.72655 C 49.935873 43.606762 49.472056 42.701214 48.886763 42.012113 C 48.301469 41.307553 47.616786 40.812814 46.834923 40.527898 C 46.06852 40.227521 45.28003 40.077332 44.471662 40.077332 C 43.729555 40.077332 42.980821 40.214269 42.225461 40.488142 C 41.483353 40.748763 40.820757 41.19712 40.235463 41.835421 C 39.647961 42.473722 39.179727 43.352767 38.828551 44.472554 C 38.490626 45.592342 38.32056 47.005881 38.32056 48.710962 L 38.32056 70.000182 L 27.286123 70.000182 L 27.286123 48.808143 C 27.286123 45.552586 26.725125 43.288716 25.605337 42.012113 C 24.485549 40.722259 22.857771 40.077332 20.722002 40.077332 C 19.173735 40.077332 17.7867 40.801771 16.563106 42.246231 C 15.339511 43.677439 14.725505 45.917014 14.725505 48.964957 L 14.725505 70.000182 L 3.67119 70.000182 L 3.67119 30.312871 L 13.124231 30.312871 L 14.725505 34.003533 C 15.951309 32.832946 17.375891 31.927398 19.003669 31.289097 C 20.631447 30.637543 22.376284 30.312871 24.23818 30.312871 C 25.201153 30.312871 26.217134 30.410052 27.286123 30.604414 C 28.352903 30.787732 29.388762 31.11903 30.391491 31.600517 C 31.405263 32.084212 32.383697 32.715887 33.320167 33.495542 C 34.258845 34.264154 35.098133 35.233753 35.840241 36.406549 C 36.478542 35.390568 37.247154 34.498271 38.143868 33.72966 C 39.056042 32.950005 40.045519 32.305078 41.112299 31.797087 C 42.181288 31.289097 43.287824 30.918043 44.434115 30.683925 C 45.580407 30.436556 46.686943 30.312871 47.753723 30.312871 Z M 47.753723 30.312871 " stroke="#525252" stroke-width="0.55" stroke-opacity="1" stroke-miterlimit="4"/></g></g></g><g mask="url(#cf30279397)"><g transform="matrix(1, 0, 0, 1, 267, 0)"><g clip-path="url(#7dfe303d1b)"><path stroke-linecap="butt" transform="matrix(1.872761, 0, 0, 1.872761, 0.593337, -66.930317)" fill="none" stroke-linejoin="miter" d="M 12.832212 155.27119 C 11.251158 153.667191 10.462716 151.723202 10.462716 149.439225 C 10.462716 147.153161 11.251158 145.186229 12.832212 143.53217 C 14.436211 141.880197 16.3802 141.054211 18.664177 141.054211 C 20.948155 141.054211 22.904658 141.880197 24.531601 143.53217 C 26.18566 145.186229 27.011647 147.153161 27.011647 149.439225 C 27.011647 151.723202 26.18566 153.667191 24.531601 155.27119 C 22.904658 156.850159 20.948155 157.640686 18.664177 157.640686 C 16.3802 157.640686 14.436211 156.850159 12.832212 155.27119 Z M 12.832212 155.27119 " stroke="#43452e" stroke-width="1.026568" stroke-opacity="1" stroke-miterlimit="4"/></g></g></g></svg>